<svg xmlns="http://www.w3.org/2000/svg" viewBox="0 0 900 600" width="900" height="600">
<rect width="900" height="600" fill="#201f1c"/>
<g fill="none" stroke="#f2f1ec" stroke-opacity="0.10" stroke-width="1" stroke-dasharray="14 4 2 4" vector-effect="non-scaling-stroke">
<path d="M271 54 V546"/>
<path d="M450 54 V546"/>
<path d="M629 54 V546"/>
<path d="M62 300 H838"/>
</g>
<g fill="none" stroke="#f2f1ec" stroke-opacity="0.07" stroke-width="1" vector-effect="non-scaling-stroke">
<circle cx="148" cy="134" r="34"/>
<circle cx="148" cy="192" r="34"/>
<circle cx="148" cy="250" r="34"/>
<circle cx="148" cy="308" r="34"/>
<circle cx="148" cy="366" r="34"/>
<circle cx="148" cy="424" r="34"/>
<circle cx="203" cy="134" r="34"/>
<circle cx="203" cy="192" r="34"/>
<circle cx="203" cy="250" r="34"/>
<circle cx="203" cy="308" r="34"/>
<circle cx="203" cy="366" r="34"/>
<circle cx="203" cy="424" r="34"/>
<circle cx="258" cy="134" r="34"/>
<circle cx="258" cy="192" r="34"/>
<circle cx="258" cy="250" r="34"/>
<circle cx="258" cy="308" r="34"/>
<circle cx="258" cy="366" r="34"/>
<circle cx="258" cy="424" r="34"/>
<circle cx="313" cy="134" r="34"/>
<circle cx="313" cy="192" r="34"/>
<circle cx="313" cy="250" r="34"/>
<circle cx="313" cy="308" r="34"/>
<circle cx="313" cy="366" r="34"/>
<circle cx="313" cy="424" r="34"/>
<circle cx="368" cy="134" r="34"/>
<circle cx="368" cy="192" r="34"/>
<circle cx="368" cy="250" r="34"/>
<circle cx="368" cy="308" r="34"/>
<circle cx="368" cy="366" r="34"/>
<circle cx="368" cy="424" r="34"/>
<circle cx="423" cy="134" r="34"/>
<circle cx="423" cy="192" r="34"/>
<circle cx="423" cy="250" r="34"/>
<circle cx="423" cy="308" r="34"/>
<circle cx="423" cy="366" r="34"/>
<circle cx="423" cy="424" r="34"/>
<circle cx="478" cy="134" r="34"/>
<circle cx="478" cy="192" r="34"/>
<circle cx="478" cy="250" r="34"/>
<circle cx="478" cy="308" r="34"/>
<circle cx="478" cy="366" r="34"/>
<circle cx="478" cy="424" r="34"/>
<circle cx="533" cy="134" r="34"/>
<circle cx="533" cy="192" r="34"/>
<circle cx="533" cy="250" r="34"/>
<circle cx="533" cy="308" r="34"/>
<circle cx="533" cy="366" r="34"/>
<circle cx="533" cy="424" r="34"/>
<circle cx="588" cy="134" r="34"/>
<circle cx="588" cy="192" r="34"/>
<circle cx="588" cy="250" r="34"/>
<circle cx="588" cy="308" r="34"/>
<circle cx="588" cy="366" r="34"/>
<circle cx="588" cy="424" r="34"/>
<circle cx="643" cy="134" r="34"/>
<circle cx="643" cy="192" r="34"/>
<circle cx="643" cy="250" r="34"/>
<circle cx="643" cy="308" r="34"/>
<circle cx="643" cy="366" r="34"/>
<circle cx="643" cy="424" r="34"/>
<circle cx="698" cy="134" r="34"/>
<circle cx="698" cy="192" r="34"/>
<circle cx="698" cy="250" r="34"/>
<circle cx="698" cy="308" r="34"/>
<circle cx="698" cy="366" r="34"/>
<circle cx="698" cy="424" r="34"/>
<circle cx="753" cy="134" r="34"/>
<circle cx="753" cy="192" r="34"/>
<circle cx="753" cy="250" r="34"/>
<circle cx="753" cy="308" r="34"/>
<circle cx="753" cy="366" r="34"/>
<circle cx="753" cy="424" r="34"/>
</g>
<g fill="none" stroke="#f2f1ec" stroke-opacity="0.34" stroke-width="1.3" stroke-linejoin="miter" vector-effect="non-scaling-stroke">
<path d="M524 516 H92 V84 H808 V516 H564"/>
<path d="M524 523 H85 V77 H815 V523 H564"/>
<path d="M524 516 V523 M564 516 V523"/>
</g>
<g fill="none" stroke="#f2f1ec" stroke-opacity="0.16" stroke-width="1" vector-effect="non-scaling-stroke">
<path d="M524 516 V476 M524 476 A40 40 0 0 1 564 516"/>
</g>
<g fill="#f2f1ec" fill-opacity="0.20">
<rect x="86" y="78" width="12" height="12"/>
<rect x="86" y="294" width="12" height="12"/>
<rect x="86" y="510" width="12" height="12"/>
<rect x="265" y="78" width="12" height="12"/>
<rect x="265" y="294" width="12" height="12"/>
<rect x="265" y="510" width="12" height="12"/>
<rect x="444" y="78" width="12" height="12"/>
<rect x="444" y="294" width="12" height="12"/>
<rect x="444" y="510" width="12" height="12"/>
<rect x="623" y="78" width="12" height="12"/>
<rect x="623" y="294" width="12" height="12"/>
<rect x="623" y="510" width="12" height="12"/>
<rect x="802" y="78" width="12" height="12"/>
<rect x="802" y="294" width="12" height="12"/>
<rect x="802" y="510" width="12" height="12"/>
</g>
<g fill="none" stroke="#f2f1ec" stroke-linecap="round" vector-effect="non-scaling-stroke">
<path d="M40 470 H111" stroke-opacity="0.50" stroke-width="2.4"/>
<path d="M133 470 H753" stroke-opacity="0.50" stroke-width="2.4"/>
<path d="M148 470 V134" stroke-opacity="0.30" stroke-width="1.3"/>
<path d="M203 470 V134" stroke-opacity="0.30" stroke-width="1.3"/>
<path d="M258 470 V134" stroke-opacity="0.30" stroke-width="1.3"/>
<path d="M313 470 V134" stroke-opacity="0.30" stroke-width="1.3"/>
<path d="M368 470 V134" stroke-opacity="0.30" stroke-width="1.3"/>
<path d="M423 470 V134" stroke-opacity="0.30" stroke-width="1.3"/>
<path d="M478 470 V134" stroke-opacity="0.30" stroke-width="1.3"/>
<path d="M533 470 V134" stroke-opacity="0.30" stroke-width="1.3"/>
<path d="M588 470 V134" stroke-opacity="0.30" stroke-width="1.3"/>
<path d="M643 470 V134" stroke-opacity="0.30" stroke-width="1.3"/>
<path d="M698 470 V134" stroke-opacity="0.30" stroke-width="1.3"/>
<path d="M753 470 V134" stroke-opacity="0.30" stroke-width="1.3"/>
</g>
<path d="M58 463 L74 477 V463 L58 477 Z" fill="#201f1c" stroke="#f2f1ec" stroke-opacity="0.55" stroke-width="1.2" vector-effect="non-scaling-stroke"/>
<circle cx="122" cy="470" r="11" fill="#201f1c" stroke="#f2f1ec" stroke-opacity="0.60" stroke-width="1.6" vector-effect="non-scaling-stroke"/>
<circle cx="122" cy="470" r="4" fill="#f2f1ec" fill-opacity="0.60"/>
<g fill="none" stroke="#f2f1ec" stroke-opacity="0.40" stroke-width="1.2" vector-effect="non-scaling-stroke">
<path d="M200 465 L206 470 L200 475"/>
<path d="M365 465 L371 470 L365 475"/>
<path d="M530 465 L536 470 L530 475"/>
<path d="M695 465 L701 470 L695 475"/>
</g>
<g fill="#f2f1ec" fill-opacity="0.55">
<rect x="145.4" y="467.4" width="5.2" height="5.2"/>
<rect x="200.4" y="467.4" width="5.2" height="5.2"/>
<rect x="255.4" y="467.4" width="5.2" height="5.2"/>
<rect x="310.4" y="467.4" width="5.2" height="5.2"/>
<rect x="365.4" y="467.4" width="5.2" height="5.2"/>
<rect x="420.4" y="467.4" width="5.2" height="5.2"/>
<rect x="475.4" y="467.4" width="5.2" height="5.2"/>
<rect x="530.4" y="467.4" width="5.2" height="5.2"/>
<rect x="585.4" y="467.4" width="5.2" height="5.2"/>
<rect x="640.4" y="467.4" width="5.2" height="5.2"/>
<rect x="695.4" y="467.4" width="5.2" height="5.2"/>
<rect x="750.4" y="467.4" width="5.2" height="5.2"/>
</g>
<g fill="#201f1c" stroke="#f2f1ec" stroke-opacity="0.62" stroke-width="1.2" vector-effect="non-scaling-stroke">
<circle cx="148" cy="134" r="4.2"/>
<circle cx="148" cy="192" r="4.2"/>
<circle cx="148" cy="250" r="4.2"/>
<circle cx="148" cy="308" r="4.2"/>
<circle cx="148" cy="366" r="4.2"/>
<circle cx="148" cy="424" r="4.2"/>
<circle cx="203" cy="134" r="4.2"/>
<circle cx="203" cy="192" r="4.2"/>
<circle cx="203" cy="250" r="4.2"/>
<circle cx="203" cy="308" r="4.2"/>
<circle cx="203" cy="366" r="4.2"/>
<circle cx="203" cy="424" r="4.2"/>
<circle cx="258" cy="134" r="4.2"/>
<circle cx="258" cy="192" r="4.2"/>
<circle cx="258" cy="250" r="4.2"/>
<circle cx="258" cy="308" r="4.2"/>
<circle cx="258" cy="366" r="4.2"/>
<circle cx="258" cy="424" r="4.2"/>
<circle cx="313" cy="134" r="4.2"/>
<circle cx="313" cy="192" r="4.2"/>
<circle cx="313" cy="250" r="4.2"/>
<circle cx="313" cy="308" r="4.2"/>
<circle cx="313" cy="366" r="4.2"/>
<circle cx="313" cy="424" r="4.2"/>
<circle cx="368" cy="134" r="4.2"/>
<circle cx="368" cy="192" r="4.2"/>
<circle cx="368" cy="250" r="4.2"/>
<circle cx="368" cy="308" r="4.2"/>
<circle cx="368" cy="366" r="4.2"/>
<circle cx="368" cy="424" r="4.2"/>
<circle cx="423" cy="134" r="4.2"/>
<circle cx="423" cy="192" r="4.2"/>
<circle cx="423" cy="250" r="4.2"/>
<circle cx="423" cy="308" r="4.2"/>
<circle cx="423" cy="366" r="4.2"/>
<circle cx="423" cy="424" r="4.2"/>
<circle cx="478" cy="134" r="4.2"/>
<circle cx="478" cy="192" r="4.2"/>
<circle cx="478" cy="250" r="4.2"/>
<circle cx="478" cy="308" r="4.2"/>
<circle cx="478" cy="366" r="4.2"/>
<circle cx="478" cy="424" r="4.2"/>
<circle cx="533" cy="134" r="4.2"/>
<circle cx="533" cy="192" r="4.2"/>
<circle cx="533" cy="250" r="4.2"/>
<circle cx="533" cy="308" r="4.2"/>
<circle cx="533" cy="366" r="4.2"/>
<circle cx="533" cy="424" r="4.2"/>
<circle cx="588" cy="308" r="4.2"/>
<circle cx="588" cy="366" r="4.2"/>
<circle cx="588" cy="424" r="4.2"/>
<circle cx="643" cy="308" r="4.2"/>
<circle cx="643" cy="366" r="4.2"/>
<circle cx="643" cy="424" r="4.2"/>
<circle cx="698" cy="308" r="4.2"/>
<circle cx="698" cy="366" r="4.2"/>
<circle cx="698" cy="424" r="4.2"/>
<circle cx="753" cy="308" r="4.2"/>
<circle cx="753" cy="366" r="4.2"/>
<circle cx="753" cy="424" r="4.2"/>
</g>
<g fill="none" stroke="#f2f1ec" stroke-opacity="0.22" stroke-width="1" vector-effect="non-scaling-stroke">
<path d="M85 50 H815"/>
<path d="M85 42 V57"/>
<path d="M80 55 L90 45"/>
<path d="M271 42 V57"/>
<path d="M266 55 L276 45"/>
<path d="M450 42 V57"/>
<path d="M445 55 L455 45"/>
<path d="M629 42 V57"/>
<path d="M624 55 L634 45"/>
<path d="M815 42 V57"/>
<path d="M810 55 L820 45"/>
<path d="M52 77 V523"/>
<path d="M44 77 H65"/>
<path d="M47 82 L57 72"/>
<path d="M44 300 H65"/>
<path d="M47 305 L57 295"/>
<path d="M44 523 H65"/>
<path d="M47 528 L57 518"/>
</g>
<g>
<rect x="558" y="104" width="225" height="176" fill="#e1251b" fill-opacity="0.07" stroke="#e1251b" stroke-width="1.6" stroke-dasharray="7 5" vector-effect="non-scaling-stroke"/>
<circle cx="588" cy="134" r="4.6" fill="#e1251b"/>
<circle cx="588" cy="192" r="4.6" fill="#e1251b"/>
<circle cx="588" cy="250" r="4.6" fill="#e1251b"/>
<circle cx="643" cy="134" r="4.6" fill="#e1251b"/>
<circle cx="643" cy="192" r="4.6" fill="#e1251b"/>
<circle cx="643" cy="250" r="4.6" fill="#e1251b"/>
<circle cx="698" cy="134" r="4.6" fill="#e1251b"/>
<circle cx="698" cy="192" r="4.6" fill="#e1251b"/>
<circle cx="698" cy="250" r="4.6" fill="#e1251b"/>
<circle cx="753" cy="134" r="4.6" fill="#e1251b"/>
<circle cx="753" cy="192" r="4.6" fill="#e1251b"/>
<circle cx="753" cy="250" r="4.6" fill="#e1251b"/>
</g>
</svg>
